<?xml version="1.0" encoding="UTF-8" standalone="no"?>
<!DOCTYPE svg PUBLIC "-//W3C//DTD SVG 1.1//EN" "http://www.w3.org/Graphics/SVG/1.1/DTD/svg11.dtd">
<svg width="100%" height="100%" viewBox="0 0 1254 1254" version="1.1" xmlns="http://www.w3.org/2000/svg" xmlns:xlink="http://www.w3.org/1999/xlink" xml:space="preserve" xmlns:serif="http://www.serif.com/" style="fill-rule:evenodd;clip-rule:evenodd;stroke-linejoin:round;stroke-miterlimit:2;">
    <g id="Fondo" transform="matrix(1.224609,0,0,1.224609,0,0)">
        <path d="M10.5,0L1023.999,0C1024.431,0.72 1023.999,0.799 1023.999,10.5L1023.999,1023.999C1023.279,1024.431 1023.2,1023.999 1013.5,1023.999L0,1023.999C-0.429,1023.285 0,1022.333 0,1021.5L0,0C0.72,-0.432 0.799,0 10.5,0Z" style="fill:rgb(254,253,254);"/>
        <path d="M680.835,428.329C655.593,377.918 655.373,378.034 653.191,373.644C649.099,365.407 649.033,365.479 644.935,357.284C643.272,353.956 631.69,330.79 624.079,315.717C620.181,307.997 620.205,307.788 619.47,307.743C618.18,307.664 617.262,310.089 617.151,310.281C616.369,311.634 613.899,315.417 613.319,316.394C611.056,320.205 589.28,354.881 580.332,369.395C579.202,371.228 566.704,391.5 566.161,392.279C561.366,399.154 552.35,397.582 549.364,392.586C538.751,374.834 538.538,374.975 537.62,373.429C529.797,360.253 529.657,360.357 528.995,359.203C526.093,354.147 525.799,354.361 522.926,349.258C517.959,340.437 485.054,287.312 477.844,275.293C476.901,273.721 476.818,273.8 475.865,272.259C467.668,259.007 467.806,258.942 467.044,257.824C465.377,255.376 464.498,257.614 463.768,258.686C463.369,259.272 463.36,259.229 462.947,259.832C459.379,265.039 408.225,342.582 407.609,343.569C399.583,356.421 399.078,356.051 390.972,368.814C382.348,382.392 382.116,382.235 381.385,383.427C380.782,384.412 321.579,475.132 321.391,475.429C320.921,476.173 303.792,502.603 303.279,503.349C296.327,513.476 288.325,506.597 286.783,504.322C282.403,497.863 289.006,490.625 290.386,488.428C294.598,481.726 294.752,481.837 295.112,481.252C301.376,471.059 307.542,462.089 308.08,461.224C313.147,453.079 366.958,370.885 367.282,370.372C374.805,358.478 374.995,358.627 375.629,357.582C378.846,352.277 449.75,245.027 450.251,244.328C456.103,236.164 457.464,230.463 464.511,229.585C473.399,228.477 474.725,234.302 485.064,250.786C491.853,261.61 491.654,261.711 492.253,262.644C497.774,271.241 507.201,286.692 507.205,286.698C508.616,288.75 514.669,298.82 515.21,299.671C517.891,303.894 544.205,347.085 545.224,348.675C551.019,357.716 550.765,357.864 551.286,358.639C555.215,364.483 556.687,368.732 558.415,368.271C558.774,368.176 559.625,366.783 559.712,366.641C569.554,350.537 569.774,350.695 579.617,334.573C583.74,327.819 583.875,327.933 588.014,321.194C599.496,302.496 599.403,302.467 610.98,283.812C614.621,277.946 625.242,275.098 630.121,285.67C631.531,288.724 631.601,288.673 648.976,323.253C658.423,342.055 658.64,341.92 668.116,360.692C668.954,362.353 678.443,381.148 678.589,381.454C680.501,385.46 683.743,391.754 684.202,392.644C689.33,402.597 689.118,402.675 694.287,412.613C697.819,419.403 707.683,439.24 707.749,439.359C711.292,445.752 729.122,482.007 735.16,493.681C741.204,505.362 732.476,510.647 726.457,509.769C719.997,508.826 718.9,503.855 716.126,498.702C715.736,497.977 712.848,492.613 711.443,489.527C707.976,481.914 700.88,468.13 699.93,466.285C696.301,459.233 684.365,435.039 680.835,428.329Z" style="fill:rgb(2,2,1);"/>
        <path d="M667.056,617.459C666.997,617.967 666.869,625.431 660.819,632.756C653.76,641.303 646.474,639.327 649.768,643.293C653.391,647.653 657.681,653.66 668.771,667.286C672.486,671.85 672.454,671.969 672.324,672.453C672.295,672.561 671.54,673.184 671.423,673.194C669.915,673.332 669.925,673.106 652.5,673.091C648.175,673.087 648.633,671.783 645.348,667.616C643.359,665.093 631.464,649.268 630.261,647.668C628.622,645.487 628.34,644.114 625.519,644.018C617.368,643.74 617.044,644.025 616.502,644.502C615.783,645.136 615.935,645.633 615.878,656.504C615.8,671.125 616.726,672.907 613.48,673.105C613.152,673.125 601.535,673.105 600.496,673.103C597.705,673.098 596.767,673.288 596.746,670.496C596.699,664.417 596.754,664.42 596.767,594.5C596.769,587.791 596.344,586.456 599.496,586.403C608.93,586.241 631.7,586.386 634.5,586.404C649.668,586.501 655.989,592.49 657.857,594.075C668.087,602.755 667.15,614.28 667.056,617.459Z" style="fill:rgb(3,2,2);"/>
        <path d="M566.501,673.098C554.61,673.083 553.683,673.182 552.424,672.995C549.999,672.633 550.368,671.537 547.903,666.309C544.231,658.526 544.014,654.976 541.484,654.611C540.982,654.539 523.1,654.638 521.501,654.647C506.324,654.731 506.224,654.374 505.233,655.047C503.254,656.391 499.28,667.92 497.339,671.421C496.194,673.486 494.47,673.111 491.499,673.114C477.668,673.129 477.598,673.107 477.256,672.755C476.198,671.67 477.054,671.498 478.333,668.428C480.444,663.361 481.722,661.02 482.053,660.296C488.227,646.764 488.134,646.751 488.673,645.577C497.09,627.233 497.02,627.215 497.799,625.644C500.081,621.045 507.024,605.299 507.028,605.292C509.269,600.564 514.846,587.721 515.258,587.285C516.042,586.456 516.237,586.25 529.501,586.399C532.894,586.437 533.569,586.298 535.329,590.572C539.604,600.953 563.952,654.256 571.073,670.669C572.442,673.825 568.322,673.116 566.501,673.098Z" style="fill:rgb(2,2,2);"/>
        <path d="M338.895,637.579C339.734,631.503 339.037,592.399 339.266,588.478C339.423,585.797 342.585,586.415 343.5,586.413C352.888,586.393 356.76,586.302 357.499,586.504C359.432,587.032 358.684,588.186 358.792,617.499C358.852,633.773 360.187,646.84 349.689,659.656C335.607,676.846 313.971,674.477 309.458,673.933C298.421,672.605 290.21,667.028 287.468,664.536C273.975,652.275 274.011,638.343 274.022,631.495C274.092,588.282 273.381,587.808 274.739,586.832C275.828,586.049 275.971,586.26 291.501,586.408C294.519,586.436 294.266,587.476 294.258,590.499C294.25,593.859 294.171,624.056 294.27,632.5C294.541,655.736 314.264,658.2 323.426,655.269C336.651,651.04 338.574,638.768 338.895,637.579Z" style="fill:rgb(2,2,2);"/>
        <path d="M849.922,662.505C849.867,671.21 850.1,672.444 848.664,672.91C848.25,673.044 848.236,673.091 804.501,673.086C803.54,673.085 803.554,673.09 792.499,673.106C787.459,673.113 785.666,673.592 785.605,670.497C785.601,670.252 785.571,595.607 785.582,594.501C785.648,587.951 785.117,586.542 788.498,586.45C796.757,586.227 838.181,586.384 842.501,586.401C846.785,586.417 848.645,586.065 848.821,588.463C848.856,588.943 848.906,601.318 848.884,601.546C848.64,604.045 847.545,603.622 837.503,603.71C817.207,603.888 806.328,603.245 805.266,604.228C804.346,605.079 804.683,605.307 804.649,617.5C804.642,619.992 804.653,620.806 807.486,620.861C810.541,620.92 840.665,620.712 841.361,620.996C842.946,621.642 842.768,622.456 842.786,632.5C842.792,636.038 843.044,637.256 839.501,637.252C809.089,637.212 809.082,636.903 806.468,637.295C804.139,637.644 804.605,639.051 804.59,649.501C804.583,654.103 803.891,655.907 807.484,655.965C808.237,655.977 848.006,655.84 848.42,655.966C850.379,656.559 849.912,659.237 849.922,662.505Z" style="fill:rgb(3,3,3);"/>
        <path d="M695.125,209.496C695.198,180.576 694.915,180.505 695.616,178.536C698.479,170.497 706.428,171.677 708.745,173.041C715.173,176.825 713.545,181.153 713.735,199.497C713.88,213.424 713.468,213.748 714.527,214.457C715.575,215.159 738.904,214.539 748.49,214.815C756.425,215.044 759.039,223.286 756.225,228.349C752.918,234.299 749.142,233.152 735.498,233.235C715.353,233.357 714.606,232.714 713.861,234.595C713.644,235.144 713.791,259.135 713.713,266.502C713.578,279.144 698.331,279.264 695.611,270.466C694.602,267.201 695.375,239.198 695.135,235.515C694.93,232.375 693.645,233.193 690.498,233.209C688.099,233.222 665.712,233.337 660.51,233.209C651.572,232.989 649.316,222.554 653.753,217.728C657.917,213.201 659.041,215.371 692.507,214.736C695.695,214.676 695.108,212.77 695.125,209.496Z" style="fill:rgb(3,3,3);"/>
        <path d="M184.492,673.089C180.508,673.104 178.319,673.814 178.284,670.504C178.058,648.916 178.252,602.419 178.277,596.499C178.313,587.729 177.907,586.576 180.496,586.453C186.254,586.18 237.54,586.381 242.5,586.401C245.803,586.414 248.54,585.85 248.707,588.479C248.714,588.577 248.79,600.56 248.731,601.526C248.574,604.069 247.399,603.655 236.501,603.708C199.678,603.89 199.407,603.413 198.405,604.415C197.608,605.212 197.734,605.365 197.905,618.492C197.948,621.775 199.478,621.304 207.497,621.254C217.97,621.189 241.91,621.255 242.525,621.313C244.788,621.526 244.47,622.533 244.507,633.5C244.515,635.81 244.853,637.842 242.473,638.099C242.272,638.121 215.818,638.1 213.5,638.098C200.302,638.087 198.657,637.705 198.114,639.335C197.65,640.728 198.095,670.414 197.827,671.579C197.386,673.499 196.226,673.047 184.492,673.089Z" style="fill:rgb(3,2,2);"/>
        <path d="M424.492,673.108C417.216,673.133 415.755,673.69 415.711,670.496C415.511,655.934 415.673,617.141 415.692,612.501C415.719,606.168 416.422,603.739 413.49,603.662C411.491,603.609 411.495,603.981 388.491,603.751C384.716,603.713 385.49,601.939 385.53,597.5C385.615,588.217 385.058,586.728 387.492,586.438C388.809,586.281 455.58,586.368 461.501,586.376C465.28,586.381 464.583,587.969 464.595,592.5C464.622,602.771 464.575,603.132 463.499,603.497C461.837,604.061 437.078,603.331 435.764,603.989C434.701,604.522 434.889,604.911 434.877,626.5C434.851,671.681 434.985,671.813 434.446,672.455C433.781,673.247 432.032,673.085 424.492,673.108Z" style="fill:rgb(3,2,2);"/>
        <path d="M721.491,673.105C717.441,673.122 715.673,673.67 715.618,670.498C715.482,662.663 715.604,615.3 715.617,610.501C715.63,605.4 716.391,603.664 712.498,603.678C696.345,603.738 689.535,603.974 688.701,603.265C687.479,602.226 688.254,587.724 688.366,587.431C688.907,586.024 689.524,586.494 724.5,586.435C727.38,586.43 758.716,586.378 760.503,586.425C763.747,586.511 763.18,587.921 763.21,595.502C763.236,602.008 763.793,603.592 760.509,603.679C754.656,603.836 736.738,603.502 735.733,603.961C734.402,604.569 734.904,605.134 734.803,644.501C734.737,670.176 734.969,671.628 734.367,672.399C733.649,673.317 732.645,673.041 721.491,673.105Z" style="fill:rgb(2,2,2);"/>
        <path d="M634.521,627.825C620.269,628.084 617.173,627.965 616.562,627.426C615.762,626.72 615.966,626.512 615.872,610.498C615.841,605.201 615.505,603.752 618.51,603.669C636.676,603.162 638.78,604.077 640.387,604.776C650.155,609.024 649.77,623.15 639.565,626.675C636.381,627.775 636.143,627.63 634.521,627.825Z" style="fill:rgb(249,249,249);"/>
        <path d="M579.178,735.501C579.239,734.308 579.737,724.529 588.529,723.863C593.721,723.469 594.662,726.291 596.538,725.56C597.198,725.303 596.946,724.992 597.577,724.643C598.538,724.113 600.544,724.283 601.016,724.884C601.403,725.376 601.396,728.209 601.395,728.5C601.349,747.467 601.97,751.788 598.538,754.542C589.857,761.507 576.614,753.769 581.708,750.829C584.806,749.041 585.973,754.894 592.649,752.943C597.736,751.457 597.979,743.818 594.771,745.992C594.223,746.363 590.883,748.627 586.588,747.199C578.843,744.625 579.221,736.498 579.178,735.501Z" style="fill:rgb(10,11,11);"/>
        <path d="M202.507,735.182C197.975,735.078 197.996,735.021 193.468,734.877C175.886,734.321 174.82,735.198 174.779,733.481C174.74,731.867 178.692,732.247 179.496,732.244C200.381,732.176 210.704,731.293 214.493,731.202C226.601,730.913 260.39,729.129 266.518,728.944C272.656,728.76 274.294,727.929 274.329,731.504C274.377,736.401 274.895,738.177 271.487,737.939C266.898,737.618 257.878,737.464 254.512,737.292C250.354,737.079 226.139,735.841 202.507,735.182Z" style="fill:rgb(9,9,9);"/>
        <path d="M454.632,725.381C454.899,725.502 455.165,725.624 455.431,725.746C455.725,725.727 455.956,726.098 456.25,726.079C456.635,726.055 455.998,724.705 460.572,723.947C472.416,721.983 476.603,739.761 468.235,746.128C465.667,748.082 460.771,748.981 457.671,747.134C455.818,746.031 454.656,745.353 454.687,747.521C454.771,753.475 455.555,756.83 452.513,756.935C449.592,757.035 450.201,755.206 450.169,747.501C450.079,725.438 450.211,725.302 450.774,724.802C450.881,724.706 451.327,724.309 452.501,724.315C454.237,724.323 454.584,725.339 454.632,725.381Z" style="fill:rgb(10,10,10);"/>
        <path d="M825.491,735.18C820.614,735.312 759.312,738.077 758.393,737.843C756.951,737.475 757.153,736.43 756.986,731.5C756.86,727.759 759.363,728.748 765.485,728.955C773.937,729.241 814.266,731.151 818.507,731.352C834.159,732.094 834.14,732.081 850.516,732.248C854.341,732.287 853.225,733.882 853.06,734.07C852.491,734.717 850.878,734.499 841.508,734.673C833.963,734.814 831.756,735.014 825.491,735.18Z" style="fill:rgb(9,9,9);"/>
        <path d="M636.723,740.575C635.961,742.472 634.533,746.841 627.577,747.963C619.189,749.316 613.318,742.75 614.675,733.527C616.798,719.107 638.146,721.127 637.482,736.499C637.392,738.579 637.236,738.534 636.723,740.575Z" style="fill:rgb(11,11,11);"/>
        <path d="M338.599,726.411C340.648,729.149 340.775,729.347 340.65,744.504C340.641,745.567 340.859,747.408 338.502,747.534C335.599,747.689 335.978,745.327 335.989,740.501C336.003,734.607 337.331,727.587 330.463,728.138C324.214,728.639 325.168,735.502 325.125,742.493C325.112,744.588 325.831,747.743 322.502,747.477C320.09,747.285 320.471,746.032 320.545,735.501C320.546,735.381 321.524,726.994 314.434,728.157C309.676,728.938 309.564,733.861 309.549,734.501C309.282,746.209 309.99,746.86 308.454,747.384C305.005,748.561 304.83,745.809 304.809,745.481C304.723,744.126 304.844,744.134 304.862,728.503C304.863,728.299 304.058,724.027 307.511,724.343C309.617,724.535 309.445,726.479 311.476,725.456C314.325,724.022 314.29,723.637 317.472,723.855C322.281,724.185 322.927,727.321 324.477,727.228C325.819,727.148 328.118,722.625 334.577,724.135C337.358,724.785 338.297,726.134 338.599,726.411Z" style="fill:rgb(14,14,14);"/>
        <path d="M484.969,741.481C485.01,741.14 485.011,740.794 485.052,740.453C486.053,732.062 497.379,734.133 499.479,733.447C501.013,732.946 501.667,728.566 496.454,727.923C491.61,727.325 490.871,730.913 488.468,730.871C482.999,730.775 488.26,723.077 496.476,723.891C506.312,724.865 505.179,730.019 505.21,738.501C505.236,745.64 507.019,746.209 505.343,747.239C503.763,748.21 501.606,746.921 501.328,746.755C499.133,745.444 496.95,748.516 492.528,748.1C485.25,747.415 485.081,741.956 484.969,741.481Z" style="fill:rgb(13,13,13);"/>
        <path d="M374.963,735.502C375.133,740.825 374.548,740.883 375.509,744.498C376.554,748.429 372.598,747.896 371.235,746.851C368.834,745.011 367.969,748.302 362.513,748.127C352.573,747.807 350.507,734.431 364.517,733.742C366.624,733.638 370.528,734.195 370.322,731.517C370.05,727.997 364.032,726.317 360.595,729.595C360.335,729.843 359.637,731.107 357.451,730.687C357.127,730.625 353.949,730.014 357.567,726.567C358.218,725.947 361.698,722.63 368.559,724.225C375.787,725.905 374.949,731.943 374.963,735.502Z" style="fill:rgb(12,12,12);"/>
        <path d="M548.343,726.321C548.944,725.864 552.515,723.156 557.46,723.867C566.447,725.161 565.584,729.701 565.61,739.5C565.626,745.764 567.492,746.664 565.441,747.359C563.381,748.057 563.348,747.6 561.44,746.589C559.472,745.546 558.427,747.993 554.484,748.161C544.697,748.579 543.191,738.465 548.511,735.518C555.055,731.892 561.641,735.568 560.956,731.463C560.278,727.406 554.331,726.608 550.833,729.867C548.464,732.074 546.546,729.83 546.491,729.503C546.222,727.887 548.322,726.342 548.343,726.321Z" style="fill:rgb(13,13,13);"/>
        <path d="M704.156,740.478C704.426,739.129 704.261,736.57 708.61,734.775C711.667,733.513 716.435,733.705 717.513,733.634C721.346,733.382 719.793,727.759 714.499,727.922C709.539,728.075 710.068,730.919 707.479,730.916C702.381,730.91 706.144,723.335 715.479,723.84C728.094,724.523 722.756,736.224 724.656,744.462C724.705,744.675 725.141,746.562 724.263,747.167C722.617,748.3 720.546,746.975 720.276,746.802C717.727,745.171 716.563,749.068 710.425,747.893C703.64,746.593 704.211,741.602 704.156,740.478Z" style="fill:rgb(15,15,15);"/>
        <path d="M520.632,618.566C522.739,614.349 523.097,611.969 524.456,612.568C524.917,612.771 526.301,616.2 526.434,616.529C531.683,629.527 531.954,629.409 532.408,630.54C534.583,635.958 537.215,638.706 532.507,638.707C513.395,638.707 513.243,638.833 512.81,638.268C512.473,637.829 512.269,637.562 514.866,631.665C520.177,619.607 520.159,619.608 520.632,618.566Z" style="fill:rgb(249,249,249);"/>
        <path d="M404.379,734.807C404.936,735.075 408.8,736.134 409.07,740.51C409.593,748.993 394.426,750.639 389.822,744.285C388.008,741.782 391.428,740.005 393.374,741.637C393.397,741.656 395.064,744.276 399.489,744.165C404.577,744.037 406.47,739.435 400.573,738.198C396.126,737.265 389.356,736.852 389.697,730.512C390.248,720.31 410.05,723.485 407.695,729.64C407.447,730.288 405.36,730.674 404.569,730.32C403.87,730.007 401.763,727.336 397.426,728.093C393.886,728.71 392.976,731.958 397.601,733.131C401.002,733.993 401.02,733.829 404.379,734.807Z" style="fill:rgb(13,14,13);"/>
        <path d="M671.122,732.519C671.194,737.869 671.187,745.878 671.059,746.363C670.7,747.725 666.732,748.4 666.587,745.492C666.184,737.421 668.812,728.145 661.503,728.092C655.692,728.049 655.4,733.786 655.364,734.495C655.158,738.528 655.702,745.899 654.905,746.831C653.966,747.929 650.746,748.119 650.621,745.49C650.553,744.052 650.687,744.067 650.665,727.5C650.665,727.161 650.549,725.748 651.005,725.167C651.136,725 651.862,724.076 653.526,724.348C653.836,724.398 654.17,724.449 654.423,724.634C654.8,724.911 654.944,725.453 655.349,725.686C656.81,726.526 656.787,725.631 658.566,724.644C661.459,723.038 665.035,724.075 665.574,724.232C671.214,725.868 670.999,731.282 671.122,732.519Z" style="fill:rgb(10,10,10);"/>
        <path d="M526.902,738.501C526.94,739.709 526.16,743.976 530.514,743.84C531.748,743.802 531.897,743.387 532.768,744.235C533.483,744.931 533.859,747.127 531.586,747.761C530.738,747.997 523.838,749.289 522.588,743.48C521.871,740.146 522.601,730.345 522.262,729.56C521.182,727.062 518.696,729.207 518.324,726.527C517.891,723.401 522.132,725.33 522.35,722.482C522.587,719.371 522.405,718.054 525.46,718.67C528.541,719.291 524.791,724.201 529.506,724.312C529.733,724.317 531.873,724.367 532.321,724.722C532.567,724.917 534.255,727.818 530.484,728.18C530.179,728.209 527.637,727.871 527.12,729.334C526.864,730.06 526.91,731.672 526.902,738.501Z" style="fill:rgb(10,10,10);"/>
        <path d="M632.716,736.507C632.648,737.003 632.172,740.455 630.281,742.268C625.434,746.917 616.967,741.998 619.724,732.568C621.481,726.558 632.147,724.696 632.716,736.507Z" style="fill:rgb(248,248,248);"/>
        <path d="M454.735,735.504C454.785,735.117 455.191,731.931 455.963,730.785C456.154,730.501 457.293,728.811 459.436,728.27C470.347,725.513 470.357,745.419 460.444,743.886C454.065,742.9 454.751,736.056 454.735,735.504Z" style="fill:rgb(248,248,248);"/>
        <path d="M587.357,742.776C587.13,742.599 586.84,742.514 586.613,742.336C582.423,739.057 583.202,729.69 588.408,728.206C599.739,724.977 599.898,747.636 587.357,742.776Z" style="fill:rgb(249,249,249);"/>
        <path d="M690.224,735.504C690.297,746.167 690.613,747.226 688.506,747.542C684.775,748.101 685.667,743.578 685.668,743.501C685.697,740.215 685.8,733.957 685.693,728.496C685.689,728.26 685.639,725.74 685.72,725.555C686.524,723.699 689.484,724.061 689.963,725.245C690.306,726.09 690.174,726.34 690.224,735.504Z" style="fill:rgb(10,10,10);"/>
        <path d="M554.503,744.178C554.193,744.117 553.867,744.178 553.557,744.118C549.763,743.376 549.209,739.423 552.671,737.911C553.874,737.386 559.298,737.078 559.574,737.12C561.601,737.431 561.735,740.913 558.276,743.135C556.59,744.217 556.481,743.882 554.503,744.178Z" style="fill:rgb(247,247,246);"/>
        <path d="M363.517,744.163C361.734,743.713 361.645,743.94 360.74,743.214C359.809,742.468 359.661,741.631 359.632,741.469C358.89,737.295 366.15,737.325 367.481,737.224C372.632,736.834 369.776,741.607 368.498,742.498C365.677,744.464 364.642,744.091 363.517,744.163Z" style="fill:rgb(245,245,245);"/>
        <path d="M494.486,744.182C492.521,744.036 492.293,744.495 490.888,743.122C490.336,742.583 486.365,737.294 498.5,737.2C498.802,737.198 501.427,737.178 500.386,740.462C499.946,741.85 498.409,742.859 498.184,743.006C496.523,744.097 496.418,743.79 494.486,744.182Z" style="fill:rgb(246,246,246);"/>
        <path d="M713.482,744.184C711.526,744.027 711.325,744.431 709.878,743.099C709.456,742.712 706.699,738.328 713.499,737.492C717.661,736.98 719.869,736.862 719.488,739.498C719.376,740.275 718.658,741.881 717.597,742.617C715.539,744.043 714.661,743.929 713.482,744.184Z" style="fill:rgb(244,244,244);"/>
        <path d="M365.378,716.407C366.024,715.66 366.303,714.488 369.509,714.409C369.713,714.404 372.971,714.323 370.744,716.644C367.551,719.974 367.636,720.049 367.332,720.31C365.85,721.58 361.735,721.425 363.266,719.411C363.822,718.68 365.212,716.649 365.378,716.407Z" style="fill:rgb(9,9,9);"/>
        <path d="M685.162,717.482C685.916,715.739 685.693,715.285 687.575,714.961C688.095,714.872 690.004,715.218 690.48,716.509C691.807,720.105 686.235,720.962 685.355,718.565C685.228,718.22 685.288,717.826 685.162,717.482Z" style="fill:rgb(13,12,13);"/>
    </g>
</svg>
